<svg class="x-impaling-twitter-msme-icon" viewBox="0 0 1040 1040" xmlns="http://www.w3.org/2000/svg" xml:space="preserve" xmlns:serif="http://www.serif.com/" style="display: none;fill-rule:evenodd;clip-rule:evenodd;stroke-linejoin:round;stroke-miterlimit:2;"><g transform="matrix(1,0,0,1,-243.783,-124.893)"><path class="x-impaling-twitter-msme-icon-x-portion" d="M283.94,167.31L670.33,683.95L281.5,1104L369.01,1104L709.43,736.24L984.48,1104L1282.28,1104L874.15,558.3L1236.07,167.31L1148.56,167.31L835.05,506.01L581.74,167.31L283.94,167.31ZM412.63,231.77L549.44,231.77L1153.57,1039.53L1016.76,1039.53L412.63,231.77Z"/><g transform="matrix(-21.5354,-20.9738,22.6817,-23.289,762.124,1334.73)"><path class="x-impaling-twitter-msme-icon-twitter-portion" d="M30.063,7.313C29.25,8.438 28.313,9.438 27.188,10.251L27.188,11.001C27.188,12.564 27,14.126 26.5,15.626C26.058,17.208 25.362,18.707 24.437,20.064C23.562,21.502 22.437,22.752 21.187,23.877C19.809,24.998 18.243,25.866 16.562,26.44C14.749,27.128 12.812,27.44 10.812,27.44C7.562,27.44 4.624,26.565 1.937,24.815C2.375,24.878 2.812,24.94 3.312,24.94C6,24.94 8.375,24.065 10.5,22.44C9.25,22.44 8.125,22.065 7.125,21.315C6.125,20.565 5.437,19.627 5.062,18.44C5.5,18.503 5.875,18.565 6.187,18.565C6.687,18.565 7.187,18.502 7.687,18.315C6.374,18.065 5.249,17.377 4.374,16.377C3.513,15.343 3.047,14.035 3.061,12.689L3.061,12.626C3.874,13.064 4.749,13.314 5.686,13.314C4.894,12.826 4.247,12.136 3.811,11.314C3.311,10.439 3.123,9.501 3.123,8.564C3.123,7.501 3.373,6.501 3.873,5.626C5.311,7.376 7.061,8.814 9.123,9.876C11.185,10.938 13.436,11.564 15.811,11.689C15.291,9.741 15.866,7.657 17.311,6.251C18.436,5.126 19.811,4.563 21.436,4.563C23.061,4.563 24.499,5.188 25.624,6.376C26.923,6.133 28.171,5.668 29.312,5.001C28.874,6.376 27.999,7.439 26.749,8.189C27.874,8.064 28.937,7.751 30.062,7.314L30.063,7.313Z" fill="#1D9BF0"/></g><path class="x-impaling-twitter-msme-icon-x-portion" d="M835.05,506.01L874.15,558.3L1236.07,167.31L1148.56,167.31L835.05,506.01Z"/></g></svg>